<svg xmlns="http://www.w3.org/2000/svg" version="1.1" xmlns:xlink="http://www.w3.org/1999/xlink" xmlns:svgjs="http://svgjs.dev/svgjs" width="1500" height="1500" viewBox="0 0 1500 1500"><rect width="1500" height="1500" fill="#000000"></rect><g transform="matrix(0.2834467120181406,0,0,0.2834467120181406,536.5951884000353,250.40485829959528)"><svg viewBox="0 0 105 247" data-background-color="#000000" preserveAspectRatio="xMidYMid meet" height="3528" width="1500" xmlns="http://www.w3.org/2000/svg" xmlns:xlink="http://www.w3.org/1999/xlink"><g id="tight-bounds" transform="matrix(1,0,0,1,0.20245227272727107,-0.09999999999999432)"><svg viewBox="0 0 104.59509545454543 247.2" height="247.2" width="104.59509545454543"><rect width="104.59509545454543" height="247.2" fill="url(#001e4470-bd16-4122-805d-f2e380ec6c6e)" mask="url(#09af0bee-1143-44ff-b76e-cc6f950af37a)" data-fill-palette-color="tertiary"></rect><g><svg></svg></g><g><svg viewBox="0 0 104.59509545454543 247.2" height="247.2" width="104.59509545454543"><g transform="matrix(1,0,0,1,0,47.215199999999996)"><svg viewBox="0 0 104.59509545454543 152.7696" height="152.7696" width="104.59509545454543"><g><svg viewBox="0 0 104.59509545454543 152.7696" height="152.7696" width="104.59509545454543"><g><svg viewBox="0 0 104.59509545454546 152.76960000000003" height="152.7696" width="104.59509545454543"><g><svg viewBox="0 0 104.59509545454546 152.76960000000003" height="152.76960000000003" width="104.59509545454546"><g id="textblocktransform"><svg viewBox="0 0 104.59509545454546 152.76960000000003" height="152.76960000000003" width="104.59509545454546" id="textblock"><g><svg viewBox="0 0 104.59509545454546 152.76960000000003" height="152.76960000000003" width="104.59509545454546"><g transform="matrix(1,0,0,1,0,0)"><svg width="104.59509545454546" viewBox="0.2 -35.1 24.1 35.2" height="152.76960000000003" data-palette-color="url(#abfbaf9e-5b1a-4052-9d08-aaabb990f288)"></svg></g></svg></g></svg></g></svg></g><g></g></svg></g></svg></g></svg></g><path d="M0 41.215L0 1 104.595 1 104.595 41.215 90.818 41.215 90.818 14.777 13.777 14.777 13.777 41.215 0 41.215M0 205.985L0 246.2 104.595 246.2 104.595 205.985 90.818 205.985 90.818 232.423 13.777 232.423 13.777 205.985 0 205.985" fill="url(#001e4470-bd16-4122-805d-f2e380ec6c6e)" stroke="transparent" data-fill-palette-color="tertiary"></path></svg></g><defs></defs><mask id="d4184b1f-ad83-4355-8161-7ce9f2e7b6c3"><g id="SvgjsG1390"><svg viewBox="0 0 104.59509545454543 247.2" height="247.2" width="104.59509545454543"><g><svg></svg></g><g><svg viewBox="0 0 104.59509545454543 247.2" height="247.2" width="104.59509545454543"><g transform="matrix(1,0,0,1,0,47.215199999999996)"><svg viewBox="0 0 104.59509545454543 152.7696" height="152.7696" width="104.59509545454543"><g><svg viewBox="0 0 104.59509545454543 152.7696" height="152.7696" width="104.59509545454543"><g><svg viewBox="0 0 104.59509545454546 152.76960000000003" height="152.7696" width="104.59509545454543"><g><svg viewBox="0 0 104.59509545454546 152.76960000000003" height="152.76960000000003" width="104.59509545454546"><g id="SvgjsG1389"><svg viewBox="0 0 104.59509545454546 152.76960000000003" height="152.76960000000003" width="104.59509545454546" id="SvgjsSvg1388"><g><svg viewBox="0 0 104.59509545454546 152.76960000000003" height="152.76960000000003" width="104.59509545454546"><g transform="matrix(1,0,0,1,0,0)"><svg width="104.59509545454546" viewBox="0.2 -35.1 24.1 35.2" height="152.76960000000003" data-palette-color="url(#abfbaf9e-5b1a-4052-9d08-aaabb990f288)"><path d="M13.05 0.1L11.45 0.1Q9.75 0.1 9.45-0.85L9.45-0.85 0.35-33.6Q0.3-33.8 0.25-33.95 0.2-34.1 0.2-34.25L0.2-34.25Q0.2-35.1 2.05-35.1L2.05-35.1 2.9-35.1Q3.6-35.1 4.1-34.93 4.6-34.75 4.7-34.3L4.7-34.3 12.15-5.55 12.35-5.55 19.85-34.3Q19.95-34.75 20.48-34.93 21-35.1 21.65-35.1L21.65-35.1 22.45-35.1Q24.3-35.1 24.3-34.25L24.3-34.25Q24.3-34.1 24.28-33.95 24.25-33.8 24.2-33.6L24.2-33.6 15.05-0.85Q14.75 0.1 13.05 0.1L13.05 0.1Z" opacity="1" transform="matrix(1,0,0,1,0,0)" fill="white" class="wordmark-text-0" id="SvgjsPath1387"></path></svg></g></svg></g></svg></g></svg></g><g></g></svg></g></svg></g></svg></g><path d="M0 41.215L0 1 104.595 1 104.595 41.215 90.818 41.215 90.818 14.777 13.777 14.777 13.777 41.215 0 41.215M0 205.985L0 246.2 104.595 246.2 104.595 205.985 90.818 205.985 90.818 232.423 13.777 232.423 13.777 205.985 0 205.985" fill="black" stroke="transparent"></path></svg></g><defs><mask></mask></defs></svg><rect width="104.59509545454543" height="247.2" fill="black" stroke="none" visibility="hidden"></rect></g></mask><linearGradient x1="0" x2="1" y1="0.548" y2="0.55" id="abfbaf9e-5b1a-4052-9d08-aaabb990f288"><stop stop-color="#ff6cab" offset="0"></stop><stop stop-color="#7366ff" offset="1"></stop></linearGradient><rect width="104.59509545454543" height="247.2" fill="url(#abfbaf9e-5b1a-4052-9d08-aaabb990f288)" mask="url(#d4184b1f-ad83-4355-8161-7ce9f2e7b6c3)" data-fill-palette-color="primary"></rect><mask id="09af0bee-1143-44ff-b76e-cc6f950af37a"><g id="SvgjsG1413"><svg viewBox="0 0 104.59509545454543 247.2" height="247.2" width="104.59509545454543"><g><svg></svg></g><g><svg viewBox="0 0 104.59509545454543 247.2" height="247.2" width="104.59509545454543"><g transform="matrix(1,0,0,1,0,47.215199999999996)"><svg viewBox="0 0 104.59509545454543 152.7696" height="152.7696" width="104.59509545454543"><g><svg viewBox="0 0 104.59509545454543 152.7696" height="152.7696" width="104.59509545454543"><g><svg viewBox="0 0 104.59509545454546 152.76960000000003" height="152.7696" width="104.59509545454543"><g><svg viewBox="0 0 104.59509545454546 152.76960000000003" height="152.76960000000003" width="104.59509545454546"><g id="SvgjsG1412"><svg viewBox="0 0 104.59509545454546 152.76960000000003" height="152.76960000000003" width="104.59509545454546" id="SvgjsSvg1411"><g><svg viewBox="0 0 104.59509545454546 152.76960000000003" height="152.76960000000003" width="104.59509545454546"><g transform="matrix(1,0,0,1,0,0)"><svg width="104.59509545454546" viewBox="0.2 -35.1 24.1 35.2" height="152.76960000000003" data-palette-color="url(#abfbaf9e-5b1a-4052-9d08-aaabb990f288)"></svg></g></svg></g></svg></g></svg></g><g></g></svg></g></svg></g></svg></g><path d="M0 41.215L0 1 104.595 1 104.595 41.215 90.818 41.215 90.818 14.777 13.777 14.777 13.777 41.215 0 41.215M0 205.985L0 246.2 104.595 246.2 104.595 205.985 90.818 205.985 90.818 232.423 13.777 232.423 13.777 205.985 0 205.985" fill="white" stroke="transparent"></path></svg></g><defs><mask></mask></defs><mask><g id="SvgjsG1410"><svg viewBox="0 0 104.59509545454543 247.2" height="247.2" width="104.59509545454543"><g><svg></svg></g><g><svg viewBox="0 0 104.59509545454543 247.2" height="247.2" width="104.59509545454543"><g transform="matrix(1,0,0,1,0,47.215199999999996)"><svg viewBox="0 0 104.59509545454543 152.7696" height="152.7696" width="104.59509545454543"><g><svg viewBox="0 0 104.59509545454543 152.7696" height="152.7696" width="104.59509545454543"><g><svg viewBox="0 0 104.59509545454546 152.76960000000003" height="152.7696" width="104.59509545454543"><g><svg viewBox="0 0 104.59509545454546 152.76960000000003" height="152.76960000000003" width="104.59509545454546"><g id="SvgjsG1409"><svg viewBox="0 0 104.59509545454546 152.76960000000003" height="152.76960000000003" width="104.59509545454546" id="SvgjsSvg1408"><g><svg viewBox="0 0 104.59509545454546 152.76960000000003" height="152.76960000000003" width="104.59509545454546"><g transform="matrix(1,0,0,1,0,0)"><svg width="104.59509545454546" viewBox="0.2 -35.1 24.1 35.2" height="152.76960000000003" data-palette-color="url(#abfbaf9e-5b1a-4052-9d08-aaabb990f288)"><path d="M13.05 0.1L11.45 0.1Q9.75 0.1 9.45-0.85L9.45-0.85 0.35-33.6Q0.3-33.8 0.25-33.95 0.2-34.1 0.2-34.25L0.2-34.25Q0.2-35.1 2.05-35.1L2.05-35.1 2.9-35.1Q3.6-35.1 4.1-34.93 4.6-34.75 4.7-34.3L4.7-34.3 12.15-5.55 12.35-5.55 19.85-34.3Q19.95-34.75 20.48-34.93 21-35.1 21.65-35.1L21.65-35.1 22.45-35.1Q24.3-35.1 24.3-34.25L24.3-34.25Q24.3-34.1 24.28-33.95 24.25-33.8 24.2-33.6L24.2-33.6 15.05-0.85Q14.75 0.1 13.05 0.1L13.05 0.1Z" opacity="1" transform="matrix(1,0,0,1,0,0)" fill="black" class="wordmark-text-0" id="SvgjsPath1407"></path></svg></g></svg></g></svg></g></svg></g><g></g></svg></g></svg></g></svg></g><path d="M0 41.215L0 1 104.595 1 104.595 41.215 90.818 41.215 90.818 14.777 13.777 14.777 13.777 41.215 0 41.215M0 205.985L0 246.2 104.595 246.2 104.595 205.985 90.818 205.985 90.818 232.423 13.777 232.423 13.777 205.985 0 205.985" fill="black" stroke="transparent"></path></svg></g><defs><mask></mask></defs></svg><rect width="104.59509545454543" height="247.2" fill="black" stroke="none" visibility="hidden"></rect></g></mask></svg><rect width="104.59509545454543" height="247.2" fill="black" stroke="none" visibility="hidden"></rect></g></mask><linearGradient x1="0" x2="1" y1="0.548" y2="0.55" id="001e4470-bd16-4122-805d-f2e380ec6c6e"><stop stop-color="#ff6cab" offset="0"></stop><stop stop-color="#7366ff" offset="1"></stop></linearGradient></svg><rect width="104.59509545454543" height="247.2" fill="none" stroke="none" visibility="hidden"></rect></g></svg></g></svg>